<svg width="401" height="85" viewBox="0 0 401 85" fill="none" xmlns="http://www.w3.org/2000/svg">
<path d="M13.456 61.4C9.424 56.664 5.2 53.208 0.784001 51.032V49.304C5.2 47.064 9.424 43.608 13.456 38.936H16.816C14.896 42.968 13.04 46.04 11.248 48.152H67.216V52.184H11.248C13.04 54.296 14.896 57.368 16.816 61.4H13.456ZM97 81.4062C95.875 81.4062 94.875 80.9062 94 79.9062C93.1875 78.9062 92.7812 77.8438 92.7812 76.7188C92.7812 75.0312 93 72.8125 93.4375 70.0625C94 66.5625 94.3125 64.375 94.375 63.5C94.875 58.1875 95.125 53.0312 95.125 48.0312C95.125 33.6562 93.0312 20.9688 88.8438 9.96875C88.9062 8.53125 89.8125 7.4375 91.5625 6.6875C92.9375 6.0625 94.4375 5.75 96.0625 5.75C99.9375 5.75 102.375 7.0625 103.375 9.6875C104.062 11.6875 104.656 15.5625 105.156 21.3125C105.594 26.125 105.812 30.1562 105.812 33.4062C105.812 37.9688 105.438 43.4375 104.688 49.8125C103.938 55.25 103.188 60.6875 102.438 66.125C102.312 68.375 101.875 71.75 101.125 76.25C100.125 79.6875 98.75 81.4062 97 81.4062ZM181.188 43.4375C181.188 67.6875 176.281 79.8125 166.469 79.8125C162.344 79.8125 157.969 77.25 153.344 72.125C150.469 68.9375 147.062 64.1562 143.125 57.7812C139.875 52.5938 138 49.9688 137.5 49.9062C136.938 50.0938 136 54.4062 134.688 62.8438C133.125 72.6562 132.281 77.7812 132.156 78.2188C131.281 81.5938 129.938 83.2812 128.125 83.2812C126.938 83.2812 125.938 82.8125 125.125 81.875C124.312 80.875 123.906 79.8125 123.906 78.6875C123.906 77 124.094 74.7812 124.469 72.0312C124.969 68.5938 125.281 66.4062 125.406 65.4688C125.781 60.4688 125.969 55.625 125.969 50.9375C125.969 36.1875 123.812 23.1875 119.5 11.9375C119.562 10.5 120.688 9.40625 122.875 8.65625C124.438 8.15625 126.125 7.90625 127.938 7.90625C132.75 7.90625 135.625 9.15625 136.562 11.6562C137.125 13.0312 137.469 15.0625 137.594 17.75C137.719 20.6875 137.938 22.7188 138.25 23.8438C138.438 24.4062 139.5 26.9375 141.438 31.4375C152 56.1875 160.125 68.5625 165.812 68.5625C169.062 68.5625 170.688 64.1875 170.688 55.4375C170.688 41.375 167.312 24.4375 160.562 4.625C160.625 3.1875 161.719 2.0625 163.844 1.25C165.406 0.6875 167.062 0.40625 168.812 0.40625C173.125 0.40625 175.781 1.71875 176.781 4.34375C176.969 4.78125 177.312 6.34375 177.812 9.03125C180.062 20.5312 181.188 32 181.188 43.4375ZM244.375 49.4375C244.375 50.8125 243.594 51.75 242.031 52.25C240.781 52.375 238.906 52.5625 236.406 52.8125C232.406 53.3125 227.656 54.1562 222.156 55.3438C216.031 56.7188 211.406 58.0625 208.281 59.375C206.406 60.1875 205.469 61.3438 205.469 62.8438C205.469 69.2188 205.375 73.2188 205.188 74.8438C204.562 80.8438 202.938 83.8438 200.312 83.8438C199.125 83.8438 198.062 83.4062 197.125 82.5312C196.25 81.6562 195.812 80.6562 195.812 79.5312C195.812 78.0312 195.875 75.8125 196 72.875C196.125 69.875 196.188 67.625 196.188 66.125C196.188 47.875 193.875 31.5625 189.25 17.1875C189.312 15.8125 189.75 14.8438 190.562 14.2812C191.062 13.9687 192.094 13.6875 193.656 13.4375C196.719 12.9375 202.062 10.9687 209.688 7.53125C216.562 4.40625 221.781 2.84375 225.344 2.84375C229.594 2.84375 233.25 4.59375 236.312 8.09375C238.25 10.3438 240.344 14 242.594 19.0625C242.656 21 241.875 23.1562 240.25 25.5312C238.562 28.0938 236.781 29.375 234.906 29.375C232.781 29.375 231.5 27.3438 231.062 23.2812C228.25 19.7812 225.25 18.0312 222.062 18.0312C220.625 18.0312 218.344 18.4062 215.219 19.1562C212.156 19.8438 209.875 20.5 208.375 21.125C206.062 22.0625 204.906 26.125 204.906 33.3125C204.906 40.75 205.281 46.125 206.031 49.4375C206.094 50 206.406 50.2812 206.969 50.2812C207.219 50.2812 207.812 50.1562 208.75 49.9062C220.562 46.5938 230.406 44.9375 238.281 44.9375C242.344 44.9375 244.375 46.4375 244.375 49.4375ZM313.281 28.9062C313.281 38.5312 310.875 48.0625 306.062 57.5C301.125 67.375 294.688 74.75 286.75 79.625C281.688 82.75 276.969 84.3125 272.594 84.3125C265.781 84.3125 260.562 81.2188 256.938 75.0312C254 69.9062 252.531 63.6562 252.531 56.2812C252.531 46.7188 254.906 37.1875 259.656 27.6875C264.656 17.8125 271.062 10.4375 278.875 5.5625C283.938 2.375 288.656 0.78125 293.031 0.78125C299.969 0.78125 305.219 3.90625 308.781 10.1562C311.781 15.2188 313.281 21.4687 313.281 28.9062ZM296.312 17.1875C293.062 17.1875 289.656 18.125 286.094 20C278.906 23.8125 272.938 29.0938 268.188 35.8438C263.5 42.5938 260.562 50 259.375 58.0625C259.25 59.1875 259.188 60.25 259.188 61.25C259.188 69.1875 262.531 73.1562 269.219 73.1562C275.094 73.1562 281.062 70.7188 287.125 65.8438C292.625 61.2812 297.219 55.5938 300.906 48.7812C304.656 41.9062 306.531 35.625 306.531 29.9375C306.531 21.4375 303.125 17.1875 296.312 17.1875ZM384.372 61.4C386.356 57.304 388.212 54.232 389.94 52.184H333.972V48.152H389.94C388.212 46.104 386.356 43.032 384.372 38.936H387.732C391.764 43.608 395.988 47.064 400.404 49.304V51.032C395.988 53.208 391.764 56.664 387.732 61.4H384.372Z" fill="black"/>
</svg>
