<svg width="456" height="56" viewBox="0 0 456 56" fill="none" xmlns="http://www.w3.org/2000/svg">
<path d="M9.304 40.6C6.616 37.4427 3.8 35.1387 0.856001 33.688V32.536C3.8 31.0427 6.616 28.7387 9.304 25.624H11.544C10.264 28.312 9.02667 30.36 7.832 31.768H45.144V34.456H7.832C9.02667 35.864 10.264 37.912 11.544 40.6H9.304ZM93.75 11.8125C93.75 17.1042 91.125 23.2292 85.875 30.1875C81.1667 36.4375 75.1042 41.5 67.6875 45.375C67.4375 47.4167 67.1875 49.4583 66.9375 51.5C66.3542 54.3333 65.3125 55.75 63.8125 55.75C63.1042 55.75 62.5 55.4375 62 54.8125C61.5 54.1458 61.25 53.4167 61.25 52.625C61.25 51.5417 61.375 50.1042 61.625 48.3125C61.9583 46.0208 62.1458 44.5625 62.1875 43.9375C62.4375 40.6875 62.5625 37.5 62.5625 34.375C62.5625 24.4167 61.125 15.7708 58.25 8.4375C58.3333 7.39583 59.0208 6.60417 60.3125 6.0625C61.2708 5.64583 62.375 5.4375 63.625 5.4375C64.2917 5.4375 64.875 5.5 65.375 5.625C72.4583 2.75 78.1667 1.3125 82.5 1.3125C85.7083 1.3125 88.375 2.27083 90.5 4.1875C92.6667 6.0625 93.75 8.60417 93.75 11.8125ZM76.6875 12.6875C71.5625 12.6875 69 13.4375 69 14.9375C69 16.0208 69.0833 17.6458 69.25 19.8125C69.4167 21.9375 69.5 23.5417 69.5 24.625C69.5 27.2917 69.375 30.2083 69.125 33.375C68.875 36.0833 68.75 37.2917 68.75 37C68.75 37.7083 68.9167 38.0625 69.25 38.0625C69.5 38.0625 69.9375 37.8542 70.5625 37.4375C73.8125 35.2708 76.875 32.4792 79.75 29.0625C83.2917 24.8958 85.0625 21.2917 85.0625 18.25C85.0625 14.5417 82.2708 12.6875 76.6875 12.6875ZM130.438 50.9375C130.021 50.9375 129.042 50.5208 127.5 49.6875C124.708 48.1875 122.271 47.125 120.188 46.5C114.979 44.9583 111.667 44.1875 110.25 44.1875C109.708 44.1875 109.292 45.1875 109 47.1875C108.5 50.5625 108.188 52.4375 108.062 52.8125C107.562 54.8542 106.75 55.875 105.625 55.875C104.875 55.875 104.208 55.5625 103.625 54.9375C103.042 54.3125 102.771 53.625 102.812 52.875L102.875 52.375C102.917 51.3333 103.167 48.2083 103.625 43C103.958 39.1667 104.125 36.0208 104.125 33.5625C104.125 24.1042 102.708 15.75 99.875 8.5C99.9167 7.41667 100.583 6.60417 101.875 6.0625C102.833 5.60417 103.938 5.375 105.188 5.375C105.771 5.375 106.292 5.4375 106.75 5.5625C113.583 2.8125 119.104 1.4375 123.312 1.4375C126.646 1.4375 129.396 2.33333 131.562 4.125C133.771 5.91667 134.875 8.41667 134.875 11.625C134.875 15.4583 133.542 19.75 130.875 24.5C128.583 28.5 125.812 32.1042 122.562 35.3125C121.771 35.9792 120.979 36.6667 120.188 37.375C118.896 38.5 118.25 39.2083 118.25 39.5C118.25 39.7083 119.479 40.2917 121.938 41.25C125.062 42.5 127.354 43.5417 128.812 44.375C131.229 45.8333 132.438 47.2708 132.438 48.6875C132.438 50.1875 131.771 50.9375 130.438 50.9375ZM118.75 12.625C117.375 12.625 115.854 12.75 114.188 13C111.771 13.375 110.562 13.875 110.562 14.5C110.562 15.6667 110.646 17.3958 110.812 19.6875C111.021 21.9792 111.125 23.7083 111.125 24.875C111.125 27.4583 110.979 30.5 110.688 34C110.479 36.4583 110.375 37.5833 110.375 37.375C110.375 37.7917 110.438 38 110.562 38C113.521 36.7917 116.833 34 120.5 29.625C124.417 25 126.375 21.2083 126.375 18.25C126.375 14.5 123.833 12.625 118.75 12.625ZM179.875 18.9375C179.875 25.3542 178.271 31.7083 175.062 38C171.771 44.5833 167.479 49.5 162.188 52.75C158.812 54.8333 155.667 55.875 152.75 55.875C148.208 55.875 144.729 53.8125 142.312 49.6875C140.354 46.2708 139.375 42.1042 139.375 37.1875C139.375 30.8125 140.958 24.4583 144.125 18.125C147.458 11.5417 151.729 6.625 156.938 3.375C160.312 1.25 163.458 0.1875 166.375 0.1875C171 0.1875 174.5 2.27083 176.875 6.4375C178.875 9.8125 179.875 13.9792 179.875 18.9375ZM168.562 11.125C166.396 11.125 164.125 11.75 161.75 13C156.958 15.5417 152.979 19.0625 149.812 23.5625C146.688 28.0625 144.729 33 143.938 38.375C143.854 39.125 143.812 39.8333 143.812 40.5C143.812 45.7917 146.042 48.4375 150.5 48.4375C154.417 48.4375 158.396 46.8125 162.438 43.5625C166.104 40.5208 169.167 36.7292 171.625 32.1875C174.125 27.6042 175.375 23.4167 175.375 19.625C175.375 13.9583 173.104 11.125 168.562 11.125ZM226.062 16.875C226.062 24.9583 224.854 32.4375 222.438 39.3125C219.146 48.8542 214.25 53.625 207.75 53.625C204.333 53.625 201 52 197.75 48.75C195.75 46.75 193.438 43.6667 190.812 39.5C189.062 36.6667 188.188 34.8958 188.188 34.1875C188.188 33.3958 188.5 32.7292 189.125 32.1875C189.75 31.6458 190.458 31.375 191.25 31.375C192.542 31.375 193.583 32.0417 194.375 33.375C194.625 34.125 195.042 35.2292 195.625 36.6875C198.375 43.6875 201.979 47.1875 206.438 47.1875C210.312 47.1875 213.354 44.6875 215.562 39.6875C217.312 35.7292 218.188 31.5417 218.188 27.125C218.188 25.2917 217.958 23.0625 217.5 20.4375C216.875 16.8542 216.083 15.0625 215.125 15.0625C214.5 15.0625 213.604 15.2708 212.438 15.6875C211.271 16.0625 210.375 16.25 209.75 16.25C208.333 16.25 207.625 15.4792 207.625 13.9375C207.625 12.3958 208.458 10.875 210.125 9.375C210.583 8.91667 212.062 7.83333 214.562 6.125C215.646 5.375 216.708 4.625 217.75 3.875C219.167 3 220.375 2.5625 221.375 2.5625C224.5 2.5625 226.062 7.33333 226.062 16.875ZM275.125 46.8125C275.125 47.7708 273.958 48.7708 271.625 49.8125C262.625 53.8125 254.854 55.8125 248.312 55.8125C243.604 55.8125 239.667 54.4375 236.5 51.6875C233.333 48.8958 231.75 45.1667 231.75 40.5C231.75 33.7917 234.604 26.4792 240.312 18.5625C245.896 10.7708 253.146 4.97917 262.062 1.1875C264.188 1.14583 266.167 2.375 268 4.875C269.667 7.16667 270.5 9.41667 270.5 11.625C270.5 14.0417 269.708 15.25 268.125 15.25C267.375 15.25 266.292 14.875 264.875 14.125C263.5 13.3333 262.708 12.9375 262.5 12.9375C260.083 12.9375 256.146 15.5 250.688 20.625C245.229 25.75 242.5 29.4375 242.5 31.6875C242.5 32.1875 242.75 32.4375 243.25 32.4375C243.5 32.4375 243.917 32.3542 244.5 32.1875C252.542 29.8542 258.917 28.6875 263.625 28.6875C266.625 28.6875 268.125 29.7708 268.125 31.9375C268.125 32.8542 267.625 33.5 266.625 33.875C265.5 34 264.021 34.1667 262.188 34.375C259.479 34.75 255.958 35.5 251.625 36.625C246.708 37.8333 243.354 38.9167 241.562 39.875C240.729 40.2917 240.312 40.9167 240.312 41.75C240.312 44.1667 241.75 46.1042 244.625 47.5625C246.958 48.7292 249.438 49.3125 252.062 49.3125C254.646 49.3125 257.583 48.8958 260.875 48.0625C262.333 47.6875 265.208 46.8125 269.5 45.4375C270.667 45.0625 271.604 44.875 272.312 44.875C272.938 44.875 273.521 45.0417 274.062 45.375C274.771 45.75 275.125 46.2292 275.125 46.8125ZM285 54.875C281.792 54.875 279.292 54.1458 277.5 52.6875C275.5 51.1042 274.5 48.75 274.5 45.625C274.5 39.7083 277.479 32.3125 283.438 23.4375C288.104 16.4375 293.396 10.125 299.312 4.5C301.354 2.54167 302.958 1.5625 304.125 1.5625C305.542 1.5625 306.542 2.75 307.125 5.125C307.208 5.58333 307.417 7.33333 307.75 10.375C308.083 13.5833 308.25 15.5 308.25 16.125C308.25 17.625 307.979 19.0625 307.438 20.4375C306.729 22.2708 305.729 23.1875 304.438 23.1875C303.521 23.1875 302.688 22.3125 301.938 20.5625C301.188 18.7708 300.542 17.875 300 17.875C299.708 17.875 299.354 18 298.938 18.25C294.979 20.7917 291.229 24.3333 287.688 28.875C283.688 34.0833 281.688 38.6667 281.688 42.625C281.688 46.75 284.042 48.8125 288.75 48.8125C293.333 48.8125 299.229 46.4375 306.438 41.6875C307.521 40.8125 309.042 39.75 311 38.5C311.375 38.3333 311.917 38.25 312.625 38.25C314.5 38.25 315.438 39.1667 315.438 41C315.438 42.5 314.729 43.6875 313.312 44.5625C309.521 46.9375 304.938 49.1667 299.562 51.25C293.354 53.6667 288.5 54.875 285 54.875ZM356.25 6.875C356.25 8.5 355.875 9.625 355.125 10.25C354.583 10.6667 353.667 10.875 352.375 10.875C352.083 10.875 351.667 10.875 351.125 10.875C350.542 10.8333 350.104 10.8125 349.812 10.8125C348.854 10.8125 347.229 10.9792 344.938 11.3125C342.396 11.6875 340.896 12.0417 340.438 12.375C340.021 12.7083 339.812 13.1875 339.812 13.8125C339.812 14.5625 339.875 15.5417 340 16.75C340.167 18.2917 340.271 19.2708 340.312 19.6875C340.396 21.3958 340.438 23.1458 340.438 24.9375C340.438 27.8958 340.208 31.4583 339.75 35.625C339.292 39.1667 338.833 42.7083 338.375 46.25C338.333 47.5417 338.104 49.4583 337.688 52C337.104 54.25 336.188 55.375 334.938 55.375C334.188 55.375 333.521 55.0417 332.938 54.375C332.354 53.7083 332.083 53.0208 332.125 52.3125V51.8125C332.208 50.6875 332.479 47.5 332.938 42.25C333.312 38.3333 333.5 35.1458 333.5 32.6875C333.5 25.8125 332.812 20.0417 331.438 15.375C331.104 14.1667 330.521 13.5625 329.688 13.5625C328.521 13.5625 326.792 13.9792 324.5 14.8125C322.25 15.6458 320.542 16.0625 319.375 16.0625C318.25 16.0625 317.208 15.3958 316.25 14.0625C315.417 12.8542 315 11.6667 315 10.5C315 9.125 315.625 7.875 316.875 6.75C330.833 3.16667 342.625 1.27083 352.25 1.0625C354.917 2.52083 356.25 4.45833 356.25 6.875ZM401.625 30.5C401.625 36.6667 398.5 42.4583 392.25 47.875C386.208 53.0833 380.062 55.6875 373.812 55.6875C369.354 55.6875 365.958 54.4167 363.625 51.875C363.208 50.4167 363 49.125 363 48C363 46.125 363.583 45.1875 364.75 45.1875C365.083 45.1875 365.792 45.5625 366.875 46.3125C368.292 47.2708 369.5 47.9792 370.5 48.4375C372.167 49.1875 373.875 49.5625 375.625 49.5625C379.375 49.5625 383.396 48.1667 387.688 45.375C392.396 42.2917 394.75 38.9792 394.75 35.4375C394.75 33.1458 393.583 31.2708 391.25 29.8125C389.208 28.5208 386.979 27.875 384.562 27.875C382.979 27.875 380.604 28.1458 377.438 28.6875C373.938 29.2708 371.729 29.8542 370.812 30.4375C368.688 31.7292 367.208 32.375 366.375 32.375C365.792 32.375 365.208 32.1875 364.625 31.8125C363.25 30.9375 362.354 29.625 361.938 27.875C361.729 26.9167 361.625 25.25 361.625 22.875C361.625 15.5 364 9.875 368.75 6C373.083 2.5 379.042 0.625 386.625 0.375H386.875C388.75 0.291667 390.792 1.3125 393 3.4375C395.25 5.52083 396.375 7.5 396.375 9.375C396.375 12.125 393.792 13.6667 388.625 14C388.083 13.7083 387.479 13.1042 386.812 12.1875C386.188 11.2708 385.667 10.6667 385.25 10.375C379.417 11.1667 375.479 12.5208 373.438 14.4375C370.771 16.9792 369.438 19.1042 369.438 20.8125C369.438 21.8958 369.812 22.4375 370.562 22.4375C370.771 22.4375 371.25 22.2917 372 22C375.5 20.5833 379.958 19.875 385.375 19.875C389.75 19.875 393.333 20.5625 396.125 21.9375C399.792 23.7292 401.625 26.5833 401.625 30.5ZM444.581 40.6C445.904 37.8693 447.141 35.8213 448.293 34.456H410.981V31.768H448.293C447.141 30.4027 445.904 28.3547 444.581 25.624H446.821C449.509 28.7387 452.325 31.0427 455.269 32.536V33.688C452.325 35.1387 449.509 37.4427 446.821 40.6H444.581Z" fill="black"/>
</svg>
